<svg width="310" height="158" viewBox="0 0 310 158" fill="none" xmlns="http://www.w3.org/2000/svg">
<path d="M129.73 138.868H131.188V151H129.73V145.51H123.844V151H122.386V138.868H123.844V144.196H129.73V138.868ZM138.794 146.788H137.21C136.442 146.788 135.866 146.938 135.482 147.238C135.098 147.538 134.906 147.916 134.906 148.372C134.906 148.828 135.056 149.2 135.356 149.488C135.656 149.764 136.094 149.902 136.67 149.902C137.318 149.902 137.834 149.722 138.218 149.362C138.602 148.99 138.794 148.522 138.794 147.958V146.788ZM134.078 143.782V142.36C134.762 141.94 135.662 141.73 136.778 141.73C139.07 141.73 140.216 142.894 140.216 145.222V151H138.812V149.92C138.344 150.7 137.492 151.09 136.256 151.09C135.404 151.09 134.714 150.838 134.186 150.334C133.67 149.83 133.412 149.194 133.412 148.426C133.412 147.55 133.742 146.872 134.402 146.392C135.074 145.9 135.986 145.654 137.138 145.654H138.794V145.186C138.794 144.466 138.632 143.926 138.308 143.566C137.984 143.194 137.438 143.008 136.67 143.008C135.698 143.008 134.834 143.266 134.078 143.782ZM144.144 141.874V143.458C144.684 142.318 145.644 141.748 147.024 141.748C147.912 141.748 148.62 142.018 149.148 142.558C149.676 143.098 149.94 143.818 149.94 144.718V151H148.518V145.096C148.518 144.424 148.344 143.914 147.996 143.566C147.66 143.206 147.216 143.026 146.664 143.026C145.98 143.026 145.386 143.29 144.882 143.818C144.39 144.346 144.144 145.078 144.144 146.014V151H142.74V141.874H144.144ZM163.281 139.318V140.848C162.549 140.368 161.673 140.128 160.653 140.128C159.921 140.128 159.339 140.302 158.907 140.65C158.475 140.986 158.259 141.43 158.259 141.982C158.259 142.27 158.313 142.528 158.421 142.756C158.541 142.984 158.745 143.2 159.033 143.404C159.321 143.596 159.567 143.746 159.771 143.854C159.975 143.95 160.293 144.094 160.725 144.286C161.133 144.466 161.445 144.61 161.661 144.718C161.877 144.814 162.153 144.976 162.489 145.204C162.837 145.42 163.095 145.636 163.263 145.852C163.443 146.056 163.599 146.332 163.731 146.68C163.875 147.016 163.947 147.382 163.947 147.778C163.947 148.846 163.581 149.674 162.849 150.262C162.117 150.838 161.175 151.126 160.023 151.126C158.751 151.126 157.671 150.868 156.783 150.352V148.786C157.659 149.446 158.727 149.776 159.987 149.776C160.743 149.776 161.337 149.608 161.769 149.272C162.201 148.936 162.417 148.45 162.417 147.814C162.417 147.55 162.363 147.316 162.255 147.112C162.159 146.896 161.991 146.704 161.751 146.536C161.523 146.356 161.301 146.212 161.085 146.104C160.881 145.984 160.599 145.84 160.239 145.672C160.167 145.636 160.059 145.588 159.915 145.528C159.399 145.3 159.003 145.114 158.727 144.97C158.463 144.826 158.145 144.616 157.773 144.34C157.413 144.052 157.149 143.722 156.981 143.35C156.813 142.978 156.729 142.546 156.729 142.054C156.729 141.022 157.095 140.218 157.827 139.642C158.571 139.054 159.501 138.76 160.617 138.76C161.661 138.76 162.549 138.946 163.281 139.318ZM170.002 151.162C168.694 151.162 167.656 150.724 166.888 149.848C166.132 148.96 165.754 147.844 165.754 146.5C165.754 145.144 166.144 144.016 166.924 143.116C167.716 142.204 168.742 141.748 170.002 141.748C171.382 141.748 172.444 142.192 173.188 143.08C173.944 143.968 174.322 145.096 174.322 146.464C174.322 147.82 173.938 148.942 173.17 149.83C172.402 150.718 171.346 151.162 170.002 151.162ZM170.002 143.008C169.138 143.008 168.46 143.344 167.968 144.016C167.476 144.688 167.23 145.51 167.23 146.482C167.23 147.43 167.482 148.24 167.986 148.912C168.49 149.572 169.162 149.902 170.002 149.902C170.914 149.902 171.616 149.578 172.108 148.93C172.6 148.27 172.846 147.454 172.846 146.482C172.846 145.474 172.612 144.646 172.144 143.998C171.676 143.338 170.962 143.008 170.002 143.008ZM176.474 151V138.274H177.896V151H176.474ZM184.311 151.162C183.003 151.162 181.965 150.724 181.197 149.848C180.441 148.96 180.063 147.844 180.063 146.5C180.063 145.144 180.453 144.016 181.233 143.116C182.025 142.204 183.051 141.748 184.311 141.748C185.691 141.748 186.753 142.192 187.497 143.08C188.253 143.968 188.631 145.096 188.631 146.464C188.631 147.82 188.247 148.942 187.479 149.83C186.711 150.718 185.655 151.162 184.311 151.162ZM184.311 143.008C183.447 143.008 182.769 143.344 182.277 144.016C181.785 144.688 181.539 145.51 181.539 146.482C181.539 147.43 181.791 148.24 182.295 148.912C182.799 149.572 183.471 149.902 184.311 149.902C185.223 149.902 185.925 149.578 186.417 148.93C186.909 148.27 187.155 147.454 187.155 146.482C187.155 145.474 186.921 144.646 186.453 143.998C185.985 143.338 185.271 143.008 184.311 143.008Z" fill="#949EA8"/>
<rect x="149" y="117" width="12" height="2" fill="#1BE38B"/>
<path d="M20.4219 22.0723C21.6699 22.0723 22.7246 21.1055 22.7246 19.7695C22.7246 18.3281 21.6699 17.4668 20.4219 17.4668C19.9121 17.4668 19.4375 17.6602 19.0859 17.9414C19.0156 17.7305 18.9805 17.502 18.9805 17.1855C18.9805 15.7793 20.2461 14.2676 21.7227 13.6523L21.3887 13.002C18.8398 14.1973 17.6797 16.2188 17.6797 18.5566C17.6797 19.1367 17.7852 20.1387 18.2949 20.9297C18.7344 21.6152 19.3672 22.0723 20.4219 22.0723ZM26.5391 22.0723C27.8047 22.0723 28.8418 21.1055 28.8418 19.7695C28.8418 18.3281 27.8047 17.4668 26.5391 17.4668C26.0293 17.4668 25.5723 17.6602 25.2031 17.9414C25.1328 17.7305 25.0977 17.502 25.0977 17.1855C25.0977 15.7793 26.3633 14.2676 27.8398 13.6523L27.5059 13.002C24.957 14.1973 23.7969 16.2188 23.7969 18.5566C23.7969 19.1367 23.9023 20.1387 24.4121 20.9297C24.8516 21.6152 25.502 22.0723 26.5391 22.0723ZM44.293 13.002C37.5957 13.002 32.709 18.293 32.709 26.6953C32.709 34.7109 37.0508 39.5098 44.5039 39.5098C46.8418 39.5098 48.5469 38.7539 50.1289 37.5586C50.8496 37.0137 51.0254 36.9434 51.3066 36.9434C51.9219 36.9434 52.2559 38.1738 52.291 39H53.0117V31.8633C53.0117 29.209 53.2578 28.8926 54.8398 28.7695V28.0488C53.9785 28.1367 52.6777 28.1719 51.0957 28.1719C49.4785 28.1719 47.2812 28.1367 46.0156 28.0488V28.7695C49.0391 28.8926 49.6543 29.3145 49.6543 32.2324V35.6953C49.6543 36.5918 49.5137 37.0488 48.6172 37.6641C47.8965 38.1738 46.5957 38.7891 44.873 38.7891C39.002 38.7891 36.2949 34.9395 36.2949 26.291C36.2949 18.5566 39.4414 13.6523 44.2227 13.6523C46.6309 13.6523 49.0391 14.707 50.4453 16.4648C51.5703 17.8359 51.9219 19.7695 52.2559 21.791H53.082C53.082 17.6074 53.1172 15.2695 53.2227 13.5117H52.3965C52.2559 15.0234 51.957 15.709 51.5 15.709C51.2715 15.709 51.0605 15.5684 50.7793 15.3398C49.0742 14.127 47.4219 13.002 44.293 13.002ZM68.3047 19.9629C65.791 19.9629 63.8398 22.4766 63.084 24.5684V20.0684C62.0469 20.4199 60.7461 20.5605 59.3398 20.5605C58.6191 20.5605 57.8633 20.5254 57.1074 20.4551V21.2109C59.1992 21.2109 59.8496 22.2305 59.8496 24.3926V35.6602C59.8496 37.6641 59.0938 38.2441 57.1074 38.2441V39C57.9336 38.9648 59.709 38.8594 61.3613 38.8594C63.5938 38.8594 65.791 38.9648 66.8984 39V38.2441C64.5254 38.2441 63.084 37.6289 63.084 35.291V27.6621C63.084 24.9902 65.0703 20.8945 68.0938 20.8945C68.4102 20.8945 68.6738 21 68.8496 21.2461C68.1992 21.6504 67.6191 22.3008 67.6191 23.1973C67.6191 24.3926 68.5332 25.0605 69.5352 25.0605C70.8008 25.0605 71.5918 24.0234 71.5918 22.793C71.5918 21.2461 70.2559 19.9629 68.3047 19.9629ZM87.3066 34.3945C86.0586 37.084 84.1777 37.998 82.0156 37.998C79.2559 37.998 76.5137 35.1152 76.5137 30.1758C76.5137 29.3848 76.5488 28.5586 76.6367 27.873H87.8867C87.8867 22.4414 85.373 19.9629 81.1543 19.9629C76.2148 19.9629 73.0156 23.8477 73.0156 30.1758C73.0156 35.6953 76.0742 39.5098 81.2949 39.5098C84.8633 39.5098 87.2363 37.084 88.0273 34.6758L87.3066 34.3945ZM81.0137 20.6484C83.4219 20.6484 84.5469 23.6719 84.4238 27.1875H76.584C76.9707 22.6523 78.8691 20.6484 81.0137 20.6484ZM98.5391 19.9629C96.2363 19.9629 94.5137 20.6484 93.4941 21.3164C92.4922 22.002 91.8066 22.8281 91.8066 23.8828C91.8066 25.1836 92.5273 26.1152 93.7578 26.1152C95.041 26.1152 95.8672 25.3945 95.8672 24.1641C95.8672 22.9863 95.0762 22.1953 94.1797 21.9668C95.0059 20.9297 96.5176 20.6836 97.748 20.6836C99.6113 20.6836 101.088 21.2812 101.088 24.3047V26.5371C101.088 27.9785 99.1895 28.5938 96.7812 29.5957C93.1777 31.1074 90.9805 32.373 90.9805 35.2207C90.9805 38.0332 93.1426 39.2461 95.5508 39.2461C97.2734 39.2461 99.541 38.5957 101.088 36.0469C101.088 37.7344 101.668 39.2461 104.182 39.2461C105.711 39.2461 106.467 38.6836 107.469 37.9277L107.064 37.3125C106.572 37.7344 106.098 38.0684 105.447 38.0684C104.621 38.0684 104.34 37.5234 104.34 36.3633V26.3613C104.34 23.8125 104.041 22.4766 102.898 21.3164C102.072 20.4902 100.561 19.9629 98.5391 19.9629ZM101.088 35.0801C99.875 37.0488 98.4688 37.8047 97.0273 37.8047C95.375 37.8047 94.1445 36.8027 94.1445 34.6406C94.1445 31.8633 96.0605 30.8262 97.6426 30.0703C99.9102 28.9629 100.701 28.5938 101.088 28.0137V35.0801ZM114.342 20.4902V14.4785C113.445 14.8125 112.285 14.9531 111.107 14.9883V20.4902H107.645V21.2109H111.107V33.2695C111.107 35.8359 111.459 37.2422 112.514 38.3145C113.305 39.1055 114.271 39.5098 115.924 39.5098C118.842 39.5098 120.107 37.3477 120.6 34.5352L119.896 34.3594C119.141 37.1719 118.086 38.209 116.645 38.209C115.203 38.209 114.342 37.418 114.342 35.1504V21.2109H119.668V20.4902H114.342ZM124.801 34.9043C123.535 34.9043 122.498 35.8711 122.498 37.207C122.498 38.6484 123.535 39.5098 124.801 39.5098C125.311 39.5098 125.768 39.3164 126.137 39.0352C126.207 39.2461 126.242 39.4746 126.242 39.791C126.242 41.1973 124.977 42.709 123.5 43.3242L123.834 43.9746C126.383 42.7793 127.543 40.7578 127.543 38.4199C127.543 37.8398 127.438 36.8379 126.928 36.0469C126.488 35.3613 125.838 34.9043 124.801 34.9043ZM148.092 27.4688L152.469 22.8633C153.471 21.8262 154.525 21.2812 155.703 21.1758V20.4551C154.982 20.5254 153.77 20.5957 152.574 20.5957C151.537 20.5957 149.762 20.5254 148.514 20.4551V21.1758C150.025 21.1758 151.168 21.5273 151.168 22.4062C151.168 22.8984 150.834 23.5488 150.025 24.3926L147.354 27.1523C146.527 28.0137 145.684 28.4531 144.26 28.6465V10.7695C143.223 11.1387 141.922 11.2793 140.516 11.2793C139.795 11.2793 139.039 11.2441 138.283 11.1738V11.9297C140.375 11.9297 141.025 12.9316 141.025 15.0938V35.6602C141.025 37.6641 140.27 38.2441 138.283 38.2441V39C139.109 38.9648 140.99 38.8594 142.643 38.8594C144.154 38.8594 145.877 38.9648 146.633 39V38.2441C144.91 38.2441 144.26 37.6641 144.26 35.6602V29.3848C145.525 29.4375 146.088 29.7363 146.967 30.9668L151.098 37.0137C151.238 37.207 151.309 37.4004 151.309 37.5586C151.309 37.9629 150.887 38.2441 150.201 38.2441V39C150.957 38.9648 152.68 38.8594 154.191 38.8594C155.281 38.8594 156.564 38.9648 157.109 39V38.2441C156.037 38.1035 155.422 37.4883 154.596 36.3633L148.092 27.4688ZM162.506 11.4551C161.24 11.4551 160.203 12.5098 160.203 13.7578C160.203 15.0234 161.24 16.0605 162.506 16.0605C163.754 16.0605 164.809 15.0234 164.809 13.7578C164.809 12.5098 163.754 11.4551 162.506 11.4551ZM164.369 20.0684C163.332 20.4199 162.031 20.5605 160.625 20.5605C159.904 20.5605 159.148 20.5254 158.393 20.4551V21.2109C160.484 21.2109 161.135 22.2305 161.135 24.3926V35.6602C161.135 37.6641 160.379 38.2441 158.393 38.2441V39C159.219 38.9648 161.1 38.8594 162.752 38.8594C164.404 38.8594 166.285 38.9648 167.111 39V38.2441C165.125 38.2441 164.369 37.6641 164.369 35.6602V20.0684ZM185.322 10.7695C184.285 11.1387 182.984 11.2793 181.578 11.2793C180.857 11.2793 180.102 11.2441 179.346 11.1738V11.9297C181.438 11.9297 182.088 12.9316 182.088 15.0938V22.0898C181.156 20.5605 179.469 19.9629 177.764 19.9629C173.439 19.9629 169.59 23.1973 169.625 29.7539C169.59 36.293 172.473 39.5098 176.973 39.5098C179.469 39.5098 181.209 38.3496 182.088 36.2051V39.4043C183.125 39.0352 184.426 38.8945 185.832 38.8945C186.553 38.8945 187.309 38.9297 188.064 39V38.2441C185.973 38.2441 185.322 37.2422 185.322 35.0801V10.7695ZM178.01 38.4199C174.811 38.4199 173.088 35.5723 173.123 29.7539C173.088 23.6719 175.215 20.7891 178.062 20.7891C179.926 20.7891 181.385 21.6152 182.088 23.5664V34.2715C181.525 36.9961 179.82 38.4199 178.01 38.4199ZM193.355 34.9043C192.09 34.9043 191.053 35.9414 191.053 37.207C191.053 38.4551 192.09 39.5098 193.355 39.5098C194.621 39.5098 195.658 38.4551 195.658 37.207C195.658 35.9414 194.621 34.9043 193.355 34.9043ZM218.193 13.5117C216.822 13.5117 214.414 13.582 212.762 13.6172C212.463 13.6172 212.182 13.6348 211.883 13.6348C210.547 13.6348 209.193 13.5645 208.367 13.5117V14.2324C210.811 14.3379 211.285 14.707 211.285 17.3262V35.1855C211.285 37.8047 210.811 38.1738 208.367 38.2793V39C209.369 38.9297 211.145 38.8945 212.832 38.8945C214.379 38.8945 216.787 39 217.877 39C226.156 39 230.902 33.8145 230.902 25.9746C230.902 17.9414 226.771 13.5117 218.193 13.5117ZM217.297 14.1621C224.75 14.1621 227.299 18.0469 227.299 26.1152C227.299 33.9551 225.172 38.3496 217.332 38.3496C215.1 38.3496 214.625 37.7695 214.625 35.2559V17.2559C214.625 14.7773 215.1 14.1621 217.297 14.1621ZM242.768 19.9629C238.197 19.9629 234.594 22.8281 234.594 29.7539C234.594 36.6621 238.197 39.5098 242.768 39.5098C247.338 39.5098 250.941 36.6621 250.941 29.7539C250.941 22.8281 247.338 19.9629 242.768 19.9629ZM242.768 20.6836C245.51 20.6836 247.443 23.3027 247.443 29.7539C247.443 36.1875 245.51 38.7891 242.768 38.7891C240.043 38.7891 238.092 36.1875 238.092 29.7539C238.092 23.3027 240.043 20.6836 242.768 20.6836ZM265.777 19.9629C263.316 19.9629 260.908 21.0703 259.643 24.3047V20.0684C258.605 20.4199 257.305 20.5605 255.898 20.5605C255.178 20.5605 254.422 20.5254 253.666 20.4551V21.2109C255.758 21.2109 256.408 22.2305 256.408 24.3926V35.6602C256.408 37.6641 255.652 38.2441 253.666 38.2441V39C254.492 38.9648 256.408 38.8594 257.99 38.8594C259.572 38.8594 261.277 38.9648 262.033 39V38.2441C260.293 38.2441 259.643 37.6641 259.643 35.6602V27.6621C259.643 23.9883 261.664 21.1055 264.688 21.1055C267.289 21.1055 267.605 23.0215 267.605 25.2539V35.6602C267.605 37.6641 266.955 38.2441 265.232 38.2441V39C265.988 38.9648 267.676 38.8594 269.258 38.8594C270.84 38.8594 272.756 38.9648 273.582 39V38.2441C271.596 38.2441 270.84 37.6641 270.84 35.6602V26.0449C270.84 23.584 270.488 22.3008 269.592 21.3164C268.766 20.4551 267.605 19.9629 265.777 19.9629ZM277.59 13.0195C276.324 13.0195 275.287 13.9863 275.287 15.3223C275.287 16.7637 276.324 17.625 277.59 17.625C278.1 17.625 278.557 17.4316 278.926 17.1504C278.996 17.3613 279.031 17.5898 279.031 17.9062C279.031 19.3125 277.766 20.8242 276.289 21.4395L276.623 22.0898C279.172 20.8945 280.332 18.873 280.332 16.5352C280.332 15.9551 280.227 14.9531 279.717 14.1621C279.277 13.4766 278.627 13.0195 277.59 13.0195ZM288.998 20.4902V14.4785C288.102 14.8125 286.941 14.9531 285.764 14.9883V20.4902H282.301V21.2109H285.764V33.2695C285.764 35.8359 286.115 37.2422 287.17 38.3145C287.961 39.1055 288.928 39.5098 290.58 39.5098C293.498 39.5098 294.764 37.3477 295.256 34.5352L294.553 34.3594C293.797 37.1719 292.742 38.209 291.301 38.209C289.859 38.209 288.998 37.418 288.998 35.1504V21.2109H294.324V20.4902H288.998ZM73.7715 83.0449C72.541 83.0449 72.0488 82.6406 72.0488 81.8496C72.0488 80.7422 73.4551 79.8633 75.0723 79.002C75.8633 79.2305 76.7598 79.3359 77.7266 79.3359C81.5059 79.3359 84.3887 77.5957 84.3887 73.6406C84.3887 70.916 83.0176 69.2461 80.9258 68.4727C81.0137 67.875 81.1719 67.3828 81.2949 66.9785C81.5938 66.1172 81.9102 65.5371 82.2617 65.2207C82.4902 66.627 82.877 67.4883 84.1777 67.4883C85.1797 67.4883 85.9004 66.7324 85.9004 65.7656C85.9004 64.7109 85.25 63.8848 84.002 63.8848C82.9473 63.8848 82.1211 64.3594 81.541 65.0801C80.9961 65.8008 80.5215 66.9258 80.2754 68.2793C79.502 68.0684 78.6406 67.9629 77.7266 67.9629C73.9473 67.9629 71.082 69.6855 71.082 73.6406C71.082 76.3301 72.4004 77.9824 74.4219 78.7734C70.9941 80.3203 69.9219 81.7793 69.9219 83.3262C69.9219 85.7344 72.2598 86.0684 73.5254 86.0684H73.6484C71.3633 87.1055 69.1309 88.7051 69.1309 90.4629C69.1309 92.6602 72.7344 93.7676 76.373 93.7676C83.3516 93.7676 86.4453 89.584 86.4453 86.3848C86.4453 83.8711 84.4941 83.0449 82.2266 83.0449H73.7715ZM77.7266 68.5957C79.748 68.5957 81.0137 69.791 81.0137 73.6406C81.0137 77.4902 79.748 78.6855 77.7266 78.6855C75.7227 78.6855 74.457 77.4902 74.457 73.6406C74.457 69.791 75.7227 68.5957 77.7266 68.5957ZM77.3398 93.1523C74.9316 93.1523 72.084 92.1504 72.084 89.707C72.084 88.3711 72.9453 86.877 74.5273 86.0684H81.2246C83.4219 86.0684 83.9668 86.7539 83.9668 88.0723C83.9668 91.5352 80.3633 93.1523 77.3398 93.1523ZM103.057 82.3945C101.809 85.084 99.9277 85.998 97.7656 85.998C95.0059 85.998 92.2637 83.1152 92.2637 78.1758C92.2637 77.3848 92.2988 76.5586 92.3867 75.873H103.637C103.637 70.4414 101.123 67.9629 96.9043 67.9629C91.9648 67.9629 88.7656 71.8477 88.7656 78.1758C88.7656 83.6953 91.8242 87.5098 97.0449 87.5098C100.613 87.5098 102.986 85.084 103.777 82.6758L103.057 82.3945ZM96.7637 68.6484C99.1719 68.6484 100.297 71.6719 100.174 75.1875H92.334C92.7207 70.6523 94.6191 68.6484 96.7637 68.6484ZM112.162 68.4902V62.4785C111.266 62.8125 110.105 62.9531 108.928 62.9883V68.4902H105.465V69.2109H108.928V81.2695C108.928 83.8359 109.279 85.2422 110.334 86.3145C111.125 87.1055 112.092 87.5098 113.744 87.5098C116.662 87.5098 117.928 85.3477 118.42 82.5352L117.717 82.3594C116.961 85.1719 115.906 86.209 114.465 86.209C113.023 86.209 112.162 85.418 112.162 83.1504V69.2109H117.488V68.4902H112.162ZM136.455 67.9629C131.533 67.9629 128.07 72.0586 128.07 77.9648C128.07 83.9062 131.568 87.5098 136.033 87.5098C139.883 87.5098 141.939 84.8379 142.66 82.5L141.975 82.2539C140.709 84.9785 138.617 85.9629 136.754 85.9629C133.977 85.9629 131.568 83.8008 131.568 77.4199C131.568 70.6172 134.346 68.5957 136.719 68.5957C138.09 68.5957 139.479 69.2461 139.953 70.1074C139.127 70.3359 138.441 71.0215 138.441 72.0938C138.441 73.2539 139.338 73.9043 140.428 73.9043C141.5 73.9043 142.326 73.1836 142.326 71.8828C142.326 70.793 141.711 69.8262 140.639 69.1055C139.479 68.3496 137.967 67.9629 136.455 67.9629ZM153.787 67.9629C149.217 67.9629 145.613 70.8281 145.613 77.7539C145.613 84.6621 149.217 87.5098 153.787 87.5098C158.357 87.5098 161.961 84.6621 161.961 77.7539C161.961 70.8281 158.357 67.9629 153.787 67.9629ZM153.787 68.6836C156.529 68.6836 158.463 71.3027 158.463 77.7539C158.463 84.1875 156.529 86.7891 153.787 86.7891C151.062 86.7891 149.111 84.1875 149.111 77.7539C149.111 71.3027 151.062 68.6836 153.787 68.6836ZM173.686 67.9629C168.764 67.9629 165.301 72.0586 165.301 77.9648C165.301 83.9062 168.799 87.5098 173.264 87.5098C177.113 87.5098 179.17 84.8379 179.891 82.5L179.205 82.2539C177.939 84.9785 175.848 85.9629 173.984 85.9629C171.207 85.9629 168.799 83.8008 168.799 77.4199C168.799 70.6172 171.576 68.5957 173.949 68.5957C175.32 68.5957 176.709 69.2461 177.184 70.1074C176.357 70.3359 175.672 71.0215 175.672 72.0938C175.672 73.2539 176.568 73.9043 177.658 73.9043C178.73 73.9043 179.557 73.1836 179.557 71.8828C179.557 70.793 178.941 69.8262 177.869 69.1055C176.709 68.3496 175.197 67.9629 173.686 67.9629ZM191.686 75.4688L196.062 70.8633C197.064 69.8262 198.119 69.2812 199.297 69.1758V68.4551C198.576 68.5254 197.363 68.5957 196.168 68.5957C195.131 68.5957 193.355 68.5254 192.107 68.4551V69.1758C193.619 69.1758 194.762 69.5273 194.762 70.4062C194.762 70.8984 194.428 71.5488 193.619 72.3926L190.947 75.1523C190.121 76.0137 189.277 76.4531 187.854 76.6465V58.7695C186.816 59.1387 185.516 59.2793 184.109 59.2793C183.389 59.2793 182.633 59.2441 181.877 59.1738V59.9297C183.969 59.9297 184.619 60.9316 184.619 63.0938V83.6602C184.619 85.6641 183.863 86.2441 181.877 86.2441V87C182.703 86.9648 184.584 86.8594 186.236 86.8594C187.748 86.8594 189.471 86.9648 190.227 87V86.2441C188.504 86.2441 187.854 85.6641 187.854 83.6602V77.3848C189.119 77.4375 189.682 77.7363 190.561 78.9668L194.691 85.0137C194.832 85.207 194.902 85.4004 194.902 85.5586C194.902 85.9629 194.48 86.2441 193.795 86.2441V87C194.551 86.9648 196.273 86.8594 197.785 86.8594C198.875 86.8594 200.158 86.9648 200.703 87V86.2441C199.631 86.1035 199.016 85.4883 198.189 84.3633L191.686 75.4688ZM215.996 68.5605C214.889 68.5605 214.238 68.5254 212.973 68.4551V69.1758C214.801 69.2988 215.662 69.7734 215.662 70.916C215.662 71.3555 215.521 71.9004 215.275 72.5684L211.303 82.9922L206.961 72.2344C206.645 71.4609 206.504 70.8809 206.504 70.459C206.504 69.2109 207.664 69.2109 209.018 69.2109V68.4551C207.576 68.5605 205.801 68.6836 204.342 68.6836C202.971 68.6836 201.846 68.5957 200.809 68.4551V69.2109C201.389 69.2109 202.32 69.3516 203.252 71.2324L209.791 86.9473L208.508 90.2344C207.752 92.2207 206.75 93.0469 205.449 93.0469C205.379 93.0469 205.309 93.0469 205.238 93.0117C205.73 92.7305 206.205 92.2207 206.205 91.3945C206.205 90.2695 205.379 89.707 204.377 89.707C203.182 89.707 202.461 90.4629 202.461 91.6055C202.461 93.0117 203.533 93.7676 204.904 93.7676C205.766 93.7676 206.926 93.5566 207.717 92.8359C208.297 92.3262 208.789 91.5352 209.264 90.3047L210.494 87.1758L216.4 71.707C217.086 69.8613 217.842 69.2812 218.738 69.1758V68.4551C217.982 68.5254 217.121 68.5605 215.996 68.5605ZM222.078 82.9043C220.812 82.9043 219.775 83.9414 219.775 85.207C219.775 86.4551 220.812 87.5098 222.078 87.5098C223.344 87.5098 224.381 86.4551 224.381 85.207C224.381 83.9414 223.344 82.9043 222.078 82.9043ZM230.867 61.0195C229.602 61.0195 228.564 61.9863 228.564 63.3223C228.564 64.7637 229.602 65.625 230.867 65.625C231.377 65.625 231.834 65.4316 232.203 65.1504C232.273 65.3613 232.309 65.5898 232.309 65.9062C232.309 67.3125 231.043 68.8242 229.566 69.4395L229.9 70.0898C232.449 68.8945 233.609 66.873 233.609 64.5352C233.609 63.9551 233.504 62.9531 232.994 62.1621C232.555 61.4766 231.904 61.0195 230.867 61.0195ZM236.984 61.0195C235.736 61.0195 234.682 61.9863 234.682 63.3223C234.682 64.7637 235.736 65.625 236.984 65.625C237.494 65.625 237.969 65.4316 238.32 65.1504C238.391 65.3613 238.426 65.5898 238.426 65.9062C238.426 67.3125 237.16 68.8242 235.684 69.4395L236.018 70.0898C238.566 68.8945 239.727 66.873 239.727 64.5352C239.727 63.9551 239.621 62.9531 239.111 62.1621C238.672 61.4766 238.039 61.0195 236.984 61.0195Z" fill="white"/>
</svg>
